<svg xmlns="http://www.w3.org/2000/svg" viewBox="0 0 158.99 21.76"><defs><style>.cls-1{fill:#fff;}.cls-2{fill:#3ec0ef;fill-rule:evenodd;}</style></defs><title>logo__ventive--reversed</title><g id="Layer_2" data-name="Layer 2"><g id="Layer_2-2" data-name="Layer 2"><path class="cls-1" d="M28,12.62c0,2.16.22,3.78,1.22,5a6,6,0,0,0,4.37,2.52A11.27,11.27,0,0,0,39,19l.12,1.4a10.31,10.31,0,0,1-5.45,1.17,8.27,8.27,0,0,1-5.34-3,10.61,10.61,0,0,1-1.72-6.48,8.76,8.76,0,0,1,2-5.8A6.31,6.31,0,0,1,33.62,4a5.31,5.31,0,0,1,4.51,2.07,9.05,9.05,0,0,1,1.57,5.63v.88Zm10.4-1.3a8.09,8.09,0,0,0-1.52-4.53,4.09,4.09,0,0,0-3.36-1.5,4.91,4.91,0,0,0-3.67,1.48A8.07,8.07,0,0,0,28,11.32Z"/><path class="cls-1" d="M65.72,20.82V11c0-3.78-1.37-5.67-4.09-5.67A4.72,4.72,0,0,0,57.89,7c-1,1.11-1.47,2.49-1.47,4.81v9.05H55V4.38h1.41V7.24h.07A5.7,5.7,0,0,1,61.87,4a4.72,4.72,0,0,1,3.91,1.7,7.68,7.68,0,0,1,1.35,4.86V20.82Z"/><path class="cls-1" d="M89.47,21.34a13.49,13.49,0,0,1-2.46.42c-2.33,0-3.76-1.84-3.76-4.63V5.86l-2.54,0V5.07S82.52,4.9,83,4.38c.77-.91.86-4.38.86-4.38h.85V4.48h4.26l0,1.4-4.3,0V17a3.94,3.94,0,0,0,.42,2.26A2.55,2.55,0,0,0,87,20.28a11.59,11.59,0,0,0,2.43-.42Z"/><path class="cls-1" d="M126.9,21.63h-1.3L119.1,5.06h1.59l4.69,12.54.91,2.43,6.06-15h1.38Z"/><path class="cls-1" d="M7.8,21.76H6.5L0,5.2H1.59L6.28,17.74c.22.6.91,2.42.91,2.42l6.05-15h1.39Z"/><path class="cls-1" d="M147.34,12.74c0,2.17.21,3.79,1.21,5a6,6,0,0,0,4.38,2.51,11.33,11.33,0,0,0,5.32-1.11l.11,1.4a10.22,10.22,0,0,1-5.45,1.18,8.22,8.22,0,0,1-5.33-3,10.54,10.54,0,0,1-1.73-6.48,8.79,8.79,0,0,1,2-5.81,6.31,6.31,0,0,1,5.1-2.36,5.31,5.31,0,0,1,4.5,2.06A9.07,9.07,0,0,1,159,11.81v.88Zm10.39-1.29a8,8,0,0,0-1.52-4.53,4.09,4.09,0,0,0-3.36-1.51,4.9,4.9,0,0,0-3.66,1.49,8,8,0,0,0-1.87,4.55Z"/><path class="cls-2" d="M108.69,8.84a1,1,0,0,1,1,1l-6.81,11.64,0,0a.62.62,0,0,1-.52.29.61.61,0,0,1-.61-.61.69.69,0,0,1,0-.2v0l2.3-7.22h-2.9a1,1,0,0,1-1-1L104.3,2a1.44,1.44,0,0,1,1.22-1h3.17a1,1,0,0,1,1,1L107,8.84Z"/></g></g></svg>